<?xml version="1.0" encoding="UTF-8" standalone="no"?>
<!-- Created with Inkscape (http://www.inkscape.org/) -->

<svg
   xmlns:dc="http://purl.org/dc/elements/1.1/"
   xmlns:cc="http://creativecommons.org/ns#"
   xmlns:rdf="http://www.w3.org/1999/02/22-rdf-syntax-ns#"
   xmlns:svg="http://www.w3.org/2000/svg"
   xmlns="http://www.w3.org/2000/svg"
   xmlns:xlink="http://www.w3.org/1999/xlink"
   xmlns:sodipodi="http://sodipodi.sourceforge.net/DTD/sodipodi-0.dtd"
   xmlns:inkscape="http://www.inkscape.org/namespaces/inkscape"
   version="1.0"
   id="svg2"
   sodipodi:version="0.32"
   inkscape:version="0.92+devel unknown"
   sodipodi:docname="python-meurpyl.svg"
   width="118.57214"
   height="119.88164">
  <sodipodi:namedview
     inkscape:window-height="836"
     inkscape:window-width="1600"
     inkscape:pageshadow="2"
     inkscape:pageopacity="0.0"
     guidetolerance="10.0"
     gridtolerance="10.0"
     objecttolerance="10.0"
     borderopacity="1.0"
     bordercolor="#666666"
     pagecolor="#ffffff"
     id="base"
     inkscape:zoom="1.4254587"
     inkscape:cx="250.57328"
     inkscape:cy="2.7333524"
     inkscape:window-x="0"
     inkscape:window-y="0"
     inkscape:current-layer="svg2"
     width="210mm"
     height="40mm"
     units="mm"
     inkscape:document-rotation="0"
     showgrid="false"
     inkscape:window-maximized="1"
     inkscape:document-units="px"
     fit-margin-top="0"
     fit-margin-left="0"
     fit-margin-right="0"
     fit-margin-bottom="0" />
  <metadata
     id="metadata371">
    <rdf:RDF>
      <cc:Work
         rdf:about="">
        <dc:format>image/svg+xml</dc:format>
        <dc:type
           rdf:resource="http://purl.org/dc/dcmitype/StillImage" />
        <dc:title></dc:title>
      </cc:Work>
    </rdf:RDF>
  </metadata>
  <defs
     id="defs4">
    <linearGradient
       id="linearGradient2795">
      <stop
         id="stop2797"
         offset="0"
         style="stop-color:#b8b8b8;stop-opacity:0.49803922;" />
      <stop
         id="stop2799"
         offset="1"
         style="stop-color:#7f7f7f;stop-opacity:0;" />
    </linearGradient>
    <linearGradient
       id="linearGradient2787">
      <stop
         id="stop2789"
         offset="0"
         style="stop-color:#7f7f7f;stop-opacity:0.5;" />
      <stop
         id="stop2791"
         offset="1"
         style="stop-color:#7f7f7f;stop-opacity:0;" />
    </linearGradient>
    <linearGradient
       id="linearGradient3676">
      <stop
         id="stop3678"
         offset="0"
         style="stop-color:#b2b2b2;stop-opacity:0.5;" />
      <stop
         id="stop3680"
         offset="1"
         style="stop-color:#b3b3b3;stop-opacity:0;" />
    </linearGradient>
    <linearGradient
       id="linearGradient3236">
      <stop
         id="stop3244"
         offset="0"
         style="stop-color:#f4f4f4;stop-opacity:1" />
      <stop
         id="stop3240"
         offset="1"
         style="stop-color:white;stop-opacity:1" />
    </linearGradient>
    <linearGradient
       id="linearGradient4671">
      <stop
         id="stop4673"
         offset="0"
         style="stop-color:#ffd43b;stop-opacity:1;" />
      <stop
         id="stop4675"
         offset="1"
         style="stop-color:#ffe873;stop-opacity:1" />
    </linearGradient>
    <linearGradient
       id="linearGradient4689">
      <stop
         id="stop4691"
         offset="0"
         style="stop-color:#5a9fd4;stop-opacity:1;" />
      <stop
         id="stop4693"
         offset="1"
         style="stop-color:#306998;stop-opacity:1;" />
    </linearGradient>
    <linearGradient
       gradientTransform="translate(100.2702,99.61116)"
       gradientUnits="userSpaceOnUse"
       xlink:href="#linearGradient4671"
       id="linearGradient2987"
       y2="144.75717"
       x2="-65.308502"
       y1="144.75717"
       x1="224.23996" />
    <linearGradient
       gradientTransform="translate(100.2702,99.61116)"
       gradientUnits="userSpaceOnUse"
       xlink:href="#linearGradient4689"
       id="linearGradient2990"
       y2="76.313133"
       x2="26.670298"
       y1="77.475983"
       x1="172.94208" />
    <linearGradient
       y2="76.313133"
       x2="26.670298"
       y1="77.475983"
       x1="172.94208"
       gradientTransform="translate(100.2702,99.61116)"
       gradientUnits="userSpaceOnUse"
       id="linearGradient2587"
       xlink:href="#linearGradient4689"
       inkscape:collect="always" />
    <linearGradient
       y2="144.75717"
       x2="-65.308502"
       y1="144.75717"
       x1="224.23996"
       gradientTransform="translate(100.2702,99.61116)"
       gradientUnits="userSpaceOnUse"
       id="linearGradient2589"
       xlink:href="#linearGradient4671"
       inkscape:collect="always" />
    <linearGradient
       y2="76.313133"
       x2="26.670298"
       y1="77.475983"
       x1="172.94208"
       gradientTransform="translate(100.2702,99.61116)"
       gradientUnits="userSpaceOnUse"
       id="linearGradient2248"
       xlink:href="#linearGradient4689"
       inkscape:collect="always" />
    <linearGradient
       y2="144.75717"
       x2="-65.308502"
       y1="144.75717"
       x1="224.23996"
       gradientTransform="translate(100.2702,99.61116)"
       gradientUnits="userSpaceOnUse"
       id="linearGradient2250"
       xlink:href="#linearGradient4671"
       inkscape:collect="always" />
    <linearGradient
       y2="144.75717"
       x2="-65.308502"
       y1="144.75717"
       x1="224.23996"
       gradientTransform="matrix(0.562541,0,0,0.567972,-11.5974,-7.60954)"
       gradientUnits="userSpaceOnUse"
       id="linearGradient2255"
       xlink:href="#linearGradient4671"
       inkscape:collect="always" />
    <linearGradient
       y2="76.313133"
       x2="26.670298"
       y1="76.176224"
       x1="172.94208"
       gradientTransform="matrix(0.562541,0,0,0.567972,-11.5974,-7.60954)"
       gradientUnits="userSpaceOnUse"
       id="linearGradient2258"
       xlink:href="#linearGradient4689"
       inkscape:collect="always" />
    <radialGradient
       gradientUnits="userSpaceOnUse"
       gradientTransform="matrix(1,0,0,0.177966,0,108.7434)"
       r="29.036913"
       fy="132.28575"
       fx="61.518883"
       cy="132.28575"
       cx="61.518883"
       id="radialGradient2801"
       xlink:href="#linearGradient2795"
       inkscape:collect="always" />
  </defs>
  <path
     id="path1948"
     d="M 58.580057,9.8055976e-4 C 53.690825,0.02369836 49.021719,0.44067956 44.913386,1.1676476 32.810751,3.305786 30.613382,7.781092 30.613381,16.034319 V 26.934322 H 59.21339 v 3.633335 H 30.613381 19.880044 c -8.311958,0 -15.5901485,4.995966 -17.8666725,14.500004 -2.62594208,10.893834 -2.74241698,17.691764 0,29.066676 2.032991,8.467045 6.888048,14.500003 15.2000055,14.500005 h 9.833336 V 75.567671 c 0,-9.439898 8.167623,-17.76667 17.866673,-17.766672 h 28.566675 c 7.95195,0 14.300008,-6.547377 14.300005,-14.533338 V 16.034319 C 87.780066,8.283555 81.241418,2.4612188 73.480061,1.1676476 68.567007,0.34980696 63.469288,-0.02173764 58.580057,9.8055976e-4 Z M 43.113385,8.76765 c 2.954184,0 5.366668,2.45189 5.366668,5.466668 -2e-6,3.004093 -2.412484,5.433335 -5.366668,5.433335 -2.964775,-1e-6 -5.366668,-2.429243 -5.366668,-5.433335 -10e-7,-3.014777 2.401893,-5.466668 5.366668,-5.466668 z"
     style="fill:#ffffff;fill-opacity:1;stroke-width:1.06666696"
     inkscape:connector-curvature="0" />
  <path
     id="path1950"
     d="m 91.346733,30.567657 v 12.700004 c 0,9.846142 -8.347623,18.133338 -17.866672,18.133339 H 44.913386 c -7.824891,0 -14.300004,6.69705 -14.300005,14.533338 v 27.233332 c 0,7.75077 6.739829,12.30968 14.300005,14.53334 9.053156,2.66199 17.734658,3.14307 28.566675,0 7.200168,-2.08468 14.300008,-6.28012 14.300005,-14.53334 V 92.267676 H 59.21339 v -3.633334 h 28.566676 14.300004 c 8.31196,0 11.40934,-5.797771 14.3,-14.500005 2.98595,-8.958814 2.8589,-17.574166 0,-29.066676 -2.05417,-8.274606 -5.97746,-14.500004 -14.3,-14.500004 z M 75.280062,99.534344 c 2.964777,0 5.366668,2.429246 5.366668,5.433326 -2e-6,3.01478 -2.401894,5.46667 -5.366668,5.46667 -2.954188,0 -5.366669,-2.45189 -5.366669,-5.46667 3e-6,-3.00408 2.412478,-5.433326 5.366669,-5.433326 z"
     style="fill:#ffffff;fill-opacity:1;stroke-width:1.06666696"
     inkscape:connector-curvature="0" />
</svg>
